# xmcd
#
# Track frame offsets:
#	150
#	19088
#	35571
#	49828
#	67375
#	83288
#	97714
#	112243
#	127009
#	144423
#	159210
#	171213
#	186353
#	204578
#	218964
#	235106
#	249605
#	265407
#	280462
#	297538
#	315183
#	316038
#	316903
#	317923
#	319193
#	320213
#	321113
#	322043
#	322938
#	323888
#	324828
#	325828
#	327048
#	328123
#	329088
#	330058
#	331048
#	332038
#	332953
#	333843
#	335038
#	336158
#	337158
#	338143
#
# Disc length: 4516 seconds
#
# Revision: 1
# Processed by: cddbd v1.5.2PL0 Copyright (c) Steve Scherf et al.
# Submitted via: audiograbber 1.83.01
#
DISCID=a911a22c
DTITLE=Various Artist - CDX 615
DYEAR=2015
DGENRE=Country
TTITLE0=Kid Rock - First Kiss
TTITLE1=George Strait - Let It Go
TTITLE2=Cole Swindell - Let Me See Ya Girl
TTITLE3=Darius Rucker - Southern Style (Radio Edit)
TTITLE4=Corey Smith - Feet Wet
TTITLE5=Tim Hadler - 11
TTITLE6=Chad Wilson - Alabama Will
TTITLE7=Allan Craig Miller - Between Saturday and Sunday
TTITLE8=Little Texas - Can't Get In A Hurry Here
TTITLE9=Leslie Cours Mather - Countrified
TTITLE10=Josh Christina - Cry You A River
TTITLE11=Jerry Don - Down In Caroline
TTITLE12=Beau and Luci - Fire
TTITLE13=Joanna Mosca - Hand Out The Window
TTITLE14=Shelby County Line - Hey Hey Girl
TTITLE15=Simon Andersson - How Did I Get Here
TTITLE16=Shawn Crittenden - I'll Take Two Tens
TTITLE17=Charee White - Keepin' It Country
TTITLE18=Donovan Lee - Marriage (Radio Edit)
TTITLE19=Sugarcane Jane - The Game
TTITLE20=Jeff Bates - Home Town Country (Liner)
TTITLE21=Jeff Bates - Kickin' Country (Liner)
TTITLE22=Jeff Bates - More of the Country You Love (Liner)
TTITLE23=Jeff Bates - My New Single (Liner)
TTITLE24=Jeff Bates - Super Country (Liner)
TTITLE25=Jeff Bates - The Best In Country Music (Liner)
TTITLE26=Jeff Bates - Today's Best Country (Liner)
TTITLE27=Jeff Bates - Today's Hot Country Music (Liner)
TTITLE28=SaraBeth - Home Town Country (Liner)
TTITLE29=SaraBeth - Kickin' Country (Liner)
TTITLE30=SaraBeth - More of the Country You Love (Liner)
TTITLE31=SaraBeth - My New Single (Liner)
TTITLE32=SaraBeth - Super Country Greatest Hits (Liner)
TTITLE33=SaraBeth - The Best In Country Music (Liner)
TTITLE34=SaraBeth - Today's Best Country (Liner)
TTITLE35=SaraBeth - Today's Hot Country Music (Liner)
TTITLE36=Casey Weston - Home Town Country (Liner)
TTITLE37=Casey Weston - Kickin' Country (Liner)
TTITLE38=Casey Weston - More of the Country You Love Next (Liner)
TTITLE39=Casey Weston - My New Single (Liner)
TTITLE40=Casey Weston - Super Country Greatest Hits Of All Time (Liner)
TTITLE41=Casey Weston - The Best In Country Music (Liner)
TTITLE42=Casey Weston - Today's Best Country (Liner)
TTITLE43=Casey Weston - Today's Hot Country Music (Liner)
EXTD=
EXTT0=
EXTT1=
EXTT2=
EXTT3=
EXTT4=
EXTT5=
EXTT6=
EXTT7=
EXTT8=
EXTT9=
EXTT10=
EXTT11=
EXTT12=
EXTT13=
EXTT14=
EXTT15=
EXTT16=
EXTT17=
EXTT18=
EXTT19=
EXTT20=
EXTT21=
EXTT22=
EXTT23=
EXTT24=
EXTT25=
EXTT26=
EXTT27=
EXTT28=
EXTT29=
EXTT30=
EXTT31=
EXTT32=
EXTT33=
EXTT34=
EXTT35=
EXTT36=
EXTT37=
EXTT38=
EXTT39=
EXTT40=
EXTT41=
EXTT42=
EXTT43=
PLAYORDER=
